# xmcd CD database file generated by Grip 3.2.0
# 
# Track frame offsets:
#       225
#       11777
#       24108
#       34720
#       51713
#       65342
#       77752
#       88417
#       101421
#       109593
#       122895
#       132651
#       142574
#       154208
#       163262
#       177502
#       188098
#       198271
# 
# Disc length: 2773 seconds
# 
# Revision: 1
# Processed by: cddbd v1.5.2PL0 Copyright (c) Steve Scherf et al.
# Submitted via: Grip 3.2.0
# 
DISCID=f80ad212
DTITLE=Willie Nelson - Building Heartaches
DYEAR=1900
DGENRE=Country
TTITLE0=Touch Me
TTITLE1=I Can't Find The Time
TTITLE2=Blame It On The Times
TTITLE3=I Let My Mind Wander
TTITLE4=Last Letter
TTITLE5=The Shelter Of Your Arms
TTITLE6=Suffer In Silence
TTITLE7=A Moment Isn't Very Long
TTITLE8=Things To Remember
TTITLE9=You'll Always Have Someone
TTITLE10=Half A Man
TTITLE11=I Didn't Sleep A Wink Last Night
TTITLE12=End Of Underständing
TTITLE13=Building Heartaches
TTITLE14=Face Of A Fighter
TTITLE15=I Feel Sorry For Him
TTITLE16=Pride Wins Again
TTITLE17=Broken Promises
EXTD=
EXTT0=
EXTT1=
EXTT2=
EXTT3=
EXTT4=
EXTT5=
EXTT6=
EXTT7=
EXTT8=
EXTT9=
EXTT10=
EXTT11=
EXTT12=
EXTT13=
EXTT14=
EXTT15=
EXTT16=
EXTT17=
PLAYORDER=
